<?xml version="1.0" encoding="utf-8"?>
<!-- Generator: Adobe Illustrator 22.0.0, SVG Export Plug-In . SVG Version: 6.00 Build 0)  -->
<svg version="1.1" id="Layer_1" xmlns="http://www.w3.org/2000/svg" xmlns:xlink="http://www.w3.org/1999/xlink" x="0px" y="0px"
	 viewBox="0 0 95 95" style="enable-background:new 0 0 95 95;" xml:space="preserve">
<style type="text/css">
	.st0{opacity:0.5;fill:#EDB32A;enable-background:new    ;}
	.st1{fill:#EDB32A;}
	.st2{fill:#FFFFFF;}
	.st3{opacity:0.5;fill:#FFFFFF;enable-background:new    ;}
</style>
<title>Asset 1zcrm</title>
<path class="st0" d="M11.8,0h71.4C89.7,0,95,5.3,95,11.8v71.4C95,89.7,89.7,95,83.2,95H11.8C5.3,95,0,89.7,0,83.2V11.8
	C0,5.3,5.3,0,11.8,0z"/>
<path class="st1" d="M18.2,6.4h58.6c6.5,0,11.8,5.3,11.8,11.8v58.6c0,6.5-5.3,11.8-11.8,11.8H18.2c-6.5,0-11.8-5.3-11.8-11.8V18.2
	C6.4,11.7,11.7,6.4,18.2,6.4z"/>
<path class="st2" d="M28.8,61.4l-9.6-9.5c-2.4-2.4-2.4-6.2-0.1-8.6c0,0,0.1-0.1,0.1-0.1l9.6-9.5c2.4-2.4,6.4-2.4,8.8,0l9.6,9.5
	c2.4,2.4,2.4,6.2,0.1,8.6c0,0,0,0-0.1,0.1l-9.6,9.5C35.2,63.8,31.3,63.8,28.8,61.4z"/>
<path class="st3" d="M53.5,67.5L37.7,51.9c-2.4-2.4-2.4-6.2-0.1-8.6c0,0,0.1-0.1,0.1-0.1l15.8-15.7c2.4-2.4,6.4-2.4,8.8,0l15.8,15.7
	c2.4,2.4,2.4,6.2,0.1,8.6c0,0-0.1,0.1-0.1,0.1L62.2,67.5C59.8,69.9,55.9,69.9,53.5,67.5z"/>
</svg>
