<?xml version="1.0" encoding="utf-8"?>
<!-- Generator: Adobe Illustrator 22.0.0, SVG Export Plug-In . SVG Version: 6.00 Build 0)  -->
<svg version="1.1" id="Layer_1" xmlns="http://www.w3.org/2000/svg" xmlns:xlink="http://www.w3.org/1999/xlink" x="0px" y="0px"
	 viewBox="0 0 95 95" style="enable-background:new 0 0 95 95;" xml:space="preserve">
<style type="text/css">
	.st0{opacity:0.5;fill:#6722D1;enable-background:new    ;}
	.st1{fill:#6722D1;}
	.st2{fill:#FFFFFF;}
</style>
<title>Asset 1zema</title>
<path class="st0" d="M11.8,0h71.4C89.7,0,95,5.3,95,11.8v71.4C95,89.7,89.7,95,83.2,95H11.8C5.3,95,0,89.7,0,83.2V11.8
	C0,5.3,5.3,0,11.8,0z"/>
<path class="st1" d="M18.2,6.4h58.6c6.5,0,11.8,5.3,11.8,11.8v58.6c0,6.5-5.3,11.8-11.8,11.8H18.2c-6.5,0-11.8-5.3-11.8-11.8V18.2
	C6.4,11.7,11.7,6.4,18.2,6.4z"/>
<path class="st2" d="M40.5,43.2L57,25.5l-16.2,0.9l-7.1,0.4l-14,0.8L40.5,43.2z"/>
<path class="st2" d="M55.5,41.4l0.1-1.2L57,26.9l-9.1,10.8l1.9,2.3l1,1l2.7,3.1l0.5,0.6l4.5,5.1l2.6,2.8l14.2-9.8L55.5,41.4z"/>
<path class="st2" d="M75.4,45l-14.9,9.8l-7.9-9.3l-4-4.7l-1.7-1.9l-6.2,7.3l-21-16.4v32.2l29.8-15l-0.2,9.7l25.6,8.9l0.5-15.1
	L75.4,45z"/>
</svg>
