<svg width="81" height="81" viewBox="0 0 81 81" fill="none" xmlns="http://www.w3.org/2000/svg">
<rect opacity="0.5" width="80.5238" height="80.5238" rx="10" fill="#256BB7"/>
<rect x="6" y="5" width="69" height="70" rx="10" fill="#256BB7"/>
<path d="M64.365 33.9574C63.2201 33.7302 62.3024 32.9034 61.9072 31.804C61.6618 31.127 61.3893 30.4637 61.0849 29.8186C60.5851 28.7601 60.6442 27.5243 61.2984 26.5476C62.1661 25.2482 61.998 23.5173 60.8895 22.4133L57.5912 19.115C56.4872 18.0111 54.7563 17.8384 53.457 18.7062C52.4847 19.3558 51.2445 19.4194 50.1859 18.9197C49.5408 18.6153 48.8775 18.3382 48.2006 18.0974C47.1011 17.7021 46.2743 16.7844 46.0471 15.6396C45.7382 14.104 44.3934 13 42.8306 13H38.1694C36.6065 13 35.2618 14.104 34.9574 15.635C34.7302 16.7799 33.9034 17.6976 32.804 18.0928C32.127 18.3382 31.4637 18.6107 30.8186 18.9151C29.7601 19.4149 28.5243 19.3558 27.5476 18.7016C26.2482 17.8339 24.5173 18.002 23.4133 19.1105L20.115 22.4088C19.0111 23.5128 18.8384 25.2437 19.7062 26.543C20.3558 27.5153 20.4194 28.7555 19.9197 29.8141C19.6153 30.4592 19.3382 31.1225 19.0974 31.7994C18.7021 32.8989 17.7844 33.7257 16.6396 33.9529C15.104 34.2618 14 35.6065 14 37.1694V41.8306C14 43.3934 15.104 44.7382 16.635 45.0426C17.7799 45.2698 18.6976 46.0966 19.0928 47.196C19.3382 47.873 19.6107 48.5363 19.9151 49.1814C20.4149 50.2399 20.3558 51.4757 19.7016 52.4524C18.8339 53.7518 19.002 55.4827 20.1105 56.5867L23.4088 59.885C24.5128 60.9889 26.2437 61.1616 27.543 60.2938C28.5153 59.6442 29.7555 59.5806 30.8141 60.0803C31.4592 60.3847 32.1225 60.6618 32.7994 60.9026C33.8989 61.2979 34.7257 62.2156 34.9529 63.3604C35.2572 64.8915 36.602 65.9955 38.1648 65.9955H42.8261C44.3889 65.9955 45.7337 64.8915 46.0381 63.3604C46.2652 62.2156 47.0921 61.2979 48.1915 60.9026C48.8684 60.6573 49.5317 60.3847 50.1768 60.0803C51.2354 59.5806 52.4711 59.6396 53.4479 60.2938C54.7472 61.1616 56.4781 60.9935 57.5821 59.885L60.8804 56.5867C61.9844 55.4827 62.157 53.7518 61.2893 52.4524C60.6396 51.4802 60.576 50.2399 61.0758 49.1814C61.3802 48.5363 61.6573 47.873 61.8981 47.196C62.2933 46.0966 63.211 45.2698 64.3559 45.0426C65.8869 44.7382 66.9909 43.3934 66.9909 41.8306V37.1694C67 35.6065 65.896 34.2618 64.365 33.9574ZM40.5 55.3191C31.7636 55.3191 24.6809 48.2364 24.6809 39.5C24.6809 30.7636 31.7636 23.6854 40.5 23.6854C49.2364 23.6854 56.3191 30.7681 56.3191 39.5045C56.3191 48.241 49.2364 55.3191 40.5 55.3191Z" fill="white"/>
<path d="M41.5518 33.0425C40.9362 32.8715 40.2984 33.232 40.1273 33.8477L37.5559 43.1043C37.3849 43.7201 37.7454 44.3578 38.3611 44.5289C38.4647 44.5576 38.5689 44.5714 38.6714 44.5714C39.1782 44.5714 39.6434 44.2358 39.7856 43.7237L42.357 34.467C42.528 33.8514 42.1675 33.2135 41.5518 33.0425Z" fill="white"/>
<path d="M33.7539 33.2685C33.2625 32.8598 32.5329 32.9269 32.1244 33.4183L28.2674 38.0565C27.9103 38.486 27.9109 39.1093 28.269 39.538L32.1259 44.1565C32.3548 44.4306 32.6836 44.572 33.0146 44.572C33.2762 44.572 33.5393 44.4837 33.7557 44.303C34.2462 43.8934 34.3118 43.1636 33.9022 42.6732L30.6634 38.7949L33.9037 34.898C34.3123 34.4066 34.2452 33.677 33.7539 33.2685Z" fill="white"/>
<path d="M51.6441 38.0343L47.7872 33.4159C47.3775 32.9254 46.6478 32.8599 46.1574 33.2695C45.6668 33.6791 45.6013 34.4088 46.011 34.8993L49.2498 38.7776L46.0094 42.6744C45.6008 43.1658 45.6679 43.8954 46.1592 44.3039C46.3754 44.4837 46.6376 44.5713 46.8984 44.5713C47.2304 44.5713 47.5599 44.4293 47.7887 44.154L51.6456 39.5158C52.0028 39.0862 52.0022 38.4629 51.6441 38.0343Z" fill="white"/>
</svg>
