<svg width="40" height="40" viewBox="0 0 40 40" fill="none" xmlns="http://www.w3.org/2000/svg">
<path d="M39.7543 11.0522C39.5853 10.8511 39.3359 10.7349 39.0729 10.7349H35.8255V9.34937C35.8255 8.91632 35.4742 8.56506 35.0412 8.56506C34.6078 8.56506 34.2569 8.91632 34.2569 9.34937V10.7349H23.7372V1.5686H34.2569V3.06854C34.2569 3.50159 34.6078 3.85284 35.0412 3.85284C35.4742 3.85284 35.8255 3.50159 35.8255 3.06854V0.784302C35.8255 0.351257 35.4742 0 35.0412 0H22.9529C22.5198 0 22.1686 0.351257 22.1686 0.784302V3.17566H10.8646C10.4315 3.17566 10.0803 3.52692 10.0803 3.95996V10.7349H7.52747L6.79413 5.65063C6.73706 5.26611 6.40686 4.98138 6.01807 4.98138H0.784302C0.351257 4.98138 0 5.33234 0 5.76569C0 6.19873 0.351257 6.54999 0.784302 6.54999H5.34149L8.56018 28.7872C8.56598 28.8284 8.57574 28.8681 8.58673 28.9072C8.81409 30.13 9.15222 31.3852 9.75372 32.3727C10.3485 33.349 11.1633 33.9957 12.1835 34.3097C11.4862 35.7895 11.748 37.6123 12.9694 38.8336C13.7469 39.6112 14.7684 40 15.7898 40C16.8112 40 17.8329 39.6112 18.6105 38.8336C19.7717 37.6724 20.0653 35.9674 19.4925 34.5306C21.8802 34.5309 24.6848 34.5309 27.3022 34.5312C27.1164 34.9963 27.0184 35.4971 27.0184 36.0132C27.0184 37.0786 27.4332 38.0801 28.1866 38.8336C28.9642 39.6112 29.9857 40 31.0071 40C32.0285 40 33.0502 39.6112 33.8275 38.8336C34.581 38.0804 34.996 37.0786 34.996 36.0132C34.996 35.4971 34.8978 34.9966 34.7119 34.5316H36.0959C36.5289 34.5316 36.8802 34.1803 36.8802 33.7473C36.8802 33.3139 36.5289 32.963 36.0959 32.963C36.0959 32.963 13.8943 32.962 13.6078 32.9608C11.8668 32.9111 10.9323 32.0059 10.3299 29.5505H36.0959C36.5283 29.5505 36.8982 29.2395 36.9724 28.8135L39.95 11.7783C39.9948 11.5192 39.9234 11.2537 39.7543 11.0522ZM32.7182 37.7243C31.7749 38.6679 30.2393 38.6679 29.2957 37.7243C28.8385 37.2672 28.587 36.6595 28.587 36.0132C28.587 35.4697 28.765 34.9536 29.093 34.5316H32.9211C33.2492 34.9536 33.4271 35.4697 33.4271 36.0132C33.4271 36.6595 33.1754 37.2672 32.7182 37.7243ZM17.5012 37.7243C16.5576 38.6679 15.022 38.6679 14.0787 37.7243C13.208 36.8539 13.1406 35.48 13.876 34.5316H17.7039C18.439 35.48 18.3716 36.8539 17.5012 37.7243ZM36.8362 19.2526H29.2197V12.515H38.0139L36.8362 19.2526ZM18.5825 21.0327H27.6511V27.7704H18.5825V21.0327ZM17.0135 27.7704H10.2121L9.24194 21.0327H17.0135V27.7704ZM18.5825 19.2526V12.515H27.6511V19.2526H18.5825ZM11.6489 4.74426H22.1686V10.7349H11.6489V4.74426ZM17.0135 12.515V19.2526H8.9856L8.01544 12.515H17.0135ZM35.3476 27.7704H29.2197V21.0327H36.5253L35.3476 27.7704Z" fill="#FF7800"/>
</svg>
