<svg width="40" height="40" viewBox="0 0 40 40" fill="none" xmlns="http://www.w3.org/2000/svg">
<path d="M15.3333 13.3333H14V14.6666H15.3333V13.3333Z" fill="#FF7800"/>
<path d="M15.3333 16H14V17.3333H15.3333V16Z" fill="#FF7800"/>
<path d="M15.3333 18.6667H14V20.0001H15.3333V18.6667Z" fill="#FF7800"/>
<path d="M15.3333 21.3333H14V22.6666H15.3333V21.3333Z" fill="#FF7800"/>
<path d="M18 13.3333H16.6666V14.6666H18V13.3333Z" fill="#FF7800"/>
<path d="M18 16H16.6666V17.3333H18V16Z" fill="#FF7800"/>
<path d="M18 18.6667H16.6666V20.0001H18V18.6667Z" fill="#FF7800"/>
<path d="M18 21.3333H16.6666V22.6666H18V21.3333Z" fill="#FF7800"/>
<path d="M20.6667 13.3333H19.3334V14.6666H20.6667V13.3333Z" fill="#FF7800"/>
<path d="M20.6667 16H19.3334V17.3333H20.6667V16Z" fill="#FF7800"/>
<path d="M20.6667 18.6667H19.3334V20.0001H20.6667V18.6667Z" fill="#FF7800"/>
<path d="M20.6667 21.3333H19.3334V22.6666H20.6667V21.3333Z" fill="#FF7800"/>
<path d="M23.3333 13.3333H22V14.6666H23.3333V13.3333Z" fill="#FF7800"/>
<path d="M18 10.6667H16.6666V12.0001H18V10.6667Z" fill="#FF7800"/>
<path d="M20.6667 10.6667H19.3334V12.0001H20.6667V10.6667Z" fill="#FF7800"/>
<path d="M23.3333 10.6667H22V12.0001H23.3333V10.6667Z" fill="#FF7800"/>
<path d="M23.3333 16H22V17.3333H23.3333V16Z" fill="#FF7800"/>
<path d="M23.3333 18.6667H22V20.0001H23.3333V18.6667Z" fill="#FF7800"/>
<path d="M23.3333 21.3333H22V22.6666H23.3333V21.3333Z" fill="#FF7800"/>
<path d="M26 13.3333H24.6666V14.6666H26V13.3333Z" fill="#FF7800"/>
<path d="M26 16H24.6666V17.3333H26V16Z" fill="#FF7800"/>
<path d="M26 18.6667H24.6666V20.0001H26V18.6667Z" fill="#FF7800"/>
<path d="M26 21.3333H24.6666V22.6666H26V21.3333Z" fill="#FF7800"/>
<path d="M39.3341 10C39.3338 10 39.3336 10 39.3333 10H29.3333V0.666667C29.3336 0.298667 29.0354 0.000250157 28.6674 1.57096e-07C28.6672 1.57096e-07 28.6669 1.57096e-07 28.6667 1.57096e-07H11.3333C10.9653 -0.000249843 10.6669 0.297917 10.6667 0.665917C10.6667 0.666167 10.6667 0.666417 10.6667 0.666667V10H0.666667C0.298667 9.99975 0.000250157 10.2979 1.57096e-07 10.6659C1.57096e-07 10.6662 1.57096e-07 10.6664 1.57096e-07 10.6667V34.6667C-0.000249843 35.0347 0.297917 35.3331 0.665917 35.3333C0.666167 35.3333 0.666417 35.3333 0.666667 35.3333H2.06025C2.02158 35.5535 2.00142 35.7765 2 36V39.3333C1.99975 39.7013 2.29792 39.9998 2.66592 40C2.66617 40 2.66642 40 2.66667 40H37.3333C37.7013 40.0003 37.9998 39.7021 38 39.3341C38 39.3338 38 39.3336 38 39.3333V36C37.9987 35.7765 37.9785 35.5535 37.9398 35.3333H39.3333C39.7013 35.3336 39.9998 35.0354 40 34.6674C40 34.6672 40 34.6669 40 34.6667V10.6667C40.0003 10.2987 39.7021 10.0002 39.3341 10ZM28.6667 28.6667C28.6667 29.4031 28.0698 30 27.3333 30C26.5969 30 26 29.4031 26 28.6667C26 27.9303 26.5969 27.3333 27.3333 27.3333C28.0693 27.3343 28.6658 27.9307 28.6667 28.6667ZM12.6667 27.3333C13.4031 27.3333 14 27.9303 14 28.6667C14 29.4031 13.4031 30 12.6667 30C11.9303 30 11.3333 29.4031 11.3333 28.6667C11.3343 27.9307 11.9307 27.3343 12.6667 27.3333ZM8.66667 38.6667H3.33333V36C3.33333 34.5273 4.52725 33.3333 6 33.3333C7.47275 33.3333 8.66667 34.5273 8.66667 36V38.6667ZM4.66667 30.6667C4.66667 29.9303 5.26358 29.3333 6 29.3333C6.73642 29.3333 7.33333 29.9303 7.33333 30.6667C7.33333 31.4031 6.73642 32 6 32C5.264 31.9991 4.66758 31.4027 4.66667 30.6667ZM8.76767 33.1188C8.51625 32.8763 8.23433 32.6676 7.929 32.498C8.94583 31.4327 8.90658 29.7447 7.84125 28.7278C6.77592 27.7108 5.08792 27.7502 4.071 28.8155C3.08742 29.8459 3.08742 31.4675 4.071 32.4979C3.43467 32.8511 2.906 33.3702 2.54117 33.9999H1.33333V11.3333H10.6667V26.9213C9.75117 27.9486 9.78208 29.5079 10.7377 30.498C9.73767 31.0511 9.02108 32.0044 8.76767 33.1188ZM15.3333 38.6667H10V34C10 32.5273 11.1939 31.3333 12.6667 31.3333C14.1394 31.3333 15.3333 32.5273 15.3333 34V38.6667ZM23.3333 38.6667H16.6667V34C16.6667 32.1591 18.1591 30.6667 20 30.6667C21.8409 30.6667 23.3333 32.1591 23.3333 34V38.6667ZM18 27.3333C18 26.2288 18.8954 25.3333 20 25.3333C21.1046 25.3333 22 26.2288 22 27.3333C22 28.4379 21.1046 29.3333 20 29.3333C18.8959 29.3322 18.0012 28.4374 18 27.3333ZM24.0602 31.7079C23.6137 30.9209 22.9496 30.2797 22.1474 29.8612C23.5555 28.6753 23.7355 26.5723 22.5496 25.1643C21.3636 23.7562 19.2607 23.5762 17.8526 24.7621C16.4445 25.9481 16.2645 28.051 17.4504 29.4591C17.5728 29.6043 17.7073 29.7388 17.8526 29.8612C17.0504 30.2797 16.3862 30.9209 15.9398 31.7079C15.5893 31.2079 15.1297 30.7942 14.5957 30.498C15.6178 29.4524 15.5988 27.7762 14.5531 26.7541C13.8798 26.0959 12.9078 25.8449 12 26.0947V1.33333H28V26.0947C27.7828 26.0347 27.5587 26.0029 27.3333 26C25.8645 25.9961 24.6706 27.1837 24.6667 28.6526C24.6648 29.3399 24.9293 30.0013 25.4043 30.498C24.8703 30.7942 24.4107 31.2079 24.0602 31.7079ZM30 36V38.6667H24.6667V34C24.6667 32.5273 25.8606 31.3333 27.3333 31.3333C28.8061 31.3333 30 32.5273 30 34V36ZM36.6667 38.6667H31.3333V36C31.3333 34.5273 32.5273 33.3333 34 33.3333C35.4728 33.3333 36.6667 34.5273 36.6667 36V38.6667ZM32.6667 30.6667C32.6667 29.9303 33.2636 29.3333 34 29.3333C34.7364 29.3333 35.3333 29.9303 35.3333 30.6667C35.3333 31.4031 34.7364 32 34 32C33.264 31.9991 32.6676 31.4027 32.6667 30.6667ZM38.6667 34H37.4588C37.094 33.3703 36.5653 32.8512 35.929 32.498C36.9458 31.4327 36.9066 29.7447 35.8413 28.7278C34.7759 27.7109 33.0879 27.7502 32.071 28.8155C31.0874 29.8459 31.0874 31.4675 32.071 32.4979C31.7657 32.6675 31.4837 32.8762 31.2323 33.1187C30.979 32.0043 30.2623 31.051 29.2623 30.4979C30.2179 29.5078 30.2489 27.9485 29.3334 26.9212V11.3333H38.6668V34H38.6667Z" fill="#FF7800"/>
<path d="M32.6667 15.3333H31.3334V25.9999H32.6667V15.3333Z" fill="#FF7800"/>
<path d="M36.6666 15.3333H35.3333V25.9999H36.6666V15.3333Z" fill="#FF7800"/>
<path d="M4.66671 15.3333H3.33337V25.9999H4.66671V15.3333Z" fill="#FF7800"/>
<path d="M8.66671 15.3333H7.33337V25.9999H8.66671V15.3333Z" fill="#FF7800"/>
<path d="M24.0008 2.66675C24.0005 2.66675 24.0003 2.66675 24 2.66675H16C15.632 2.6665 15.3336 2.96466 15.3334 3.33266C15.3334 3.33291 15.3334 3.33316 15.3334 3.33341V8.66675C15.3331 9.03475 15.6313 9.33316 15.9993 9.33341C15.9995 9.33341 15.9998 9.33341 16 9.33341H24C24.368 9.33366 24.6665 9.0355 24.6667 8.6675C24.6667 8.66725 24.6667 8.667 24.6667 8.66675V3.33341C24.667 2.96541 24.3688 2.667 24.0008 2.66675ZM23.3334 8.00008H16.6667V4.00008H23.3334V8.00008Z" fill="#FF7800"/>
</svg>
