<svg width="33" height="37" viewBox="0 0 33 37" fill="none" xmlns="http://www.w3.org/2000/svg">
<path d="M7.49865 28.5668L11.433 35.3817C12.282 36.8538 14.1918 37.3989 15.7021 36.5258C17.1965 35.6621 17.7101 33.7526 16.8456 32.257L14.5018 28.1969L16.5315 27.025C16.9051 26.809 17.0333 26.3314 16.8175 25.9578L15.8016 24.1982C15.9227 24.1747 16.7192 24.0184 30.7656 21.263C32.502 21.1687 33.5424 19.2696 32.6653 17.7513L30.0688 13.2543L31.7281 10.7411C31.891 10.494 31.9008 10.1763 31.7528 9.91992L30.1903 7.21362C30.0423 6.95728 29.7612 6.80713 29.4667 6.82452L26.4611 7.00488L23.5787 2.01221C23.1612 1.28894 22.4132 0.851013 21.5782 0.840637C21.5682 0.840332 21.5584 0.840332 21.5483 0.840332C20.7414 0.840332 20.009 1.24194 19.5751 1.92096L9.36937 14.9221L2.73455 18.7526C0.124987 20.2587 -0.778943 23.6064 0.732898 26.223C2.11412 28.6156 5.02611 29.5568 7.49865 28.5668ZM15.4927 33.0385C15.9242 33.785 15.6688 34.7402 14.9202 35.1726C14.1692 35.6069 13.2128 35.3401 12.7861 34.6007L8.87987 27.834L11.5862 26.2715C16.107 34.103 15.4201 32.9131 15.4927 33.0385ZM13.7206 26.8434L12.9393 25.4903L14.2925 24.709L15.0737 26.0622L13.7206 26.8434ZM29.0785 8.41296L30.1583 10.2831L29.1954 11.7412L27.3345 8.51764L29.0785 8.41296ZM20.8818 2.77759C21.0915 2.43457 21.4241 2.39917 21.559 2.40283C21.6924 2.40436 22.0247 2.44586 22.2252 2.79315L31.3121 18.5326C31.6081 19.045 31.2483 19.6892 30.6548 19.7039C30.5483 19.7063 30.4991 19.7255 30.2263 19.7765L20.6142 3.12762C20.8159 2.86823 20.8418 2.8432 20.8818 2.77759ZM19.5745 4.45209L28.6055 20.0945L14.9758 22.7678L10.8315 15.5898L19.5745 4.45209ZM2.08605 25.4418C1.74303 24.8482 1.56176 24.1744 1.56176 23.4926C1.56176 22.0992 2.31066 20.8016 3.5158 20.1058L9.60497 16.5901L13.5112 23.3559L7.42205 26.8718C5.55651 27.9485 3.16301 27.307 2.08605 25.4418Z" fill="#FF7800"/>
</svg>
