<svg width="40" height="40" viewBox="0 0 40 40" fill="none" xmlns="http://www.w3.org/2000/svg">
<path d="M39.8036 20.1954L35.137 15.5286C34.8766 15.2682 34.4545 15.2682 34.1943 15.5286L21.3322 28.3907L15.6082 22.6664H16.9989C18.0108 23.9288 19.5409 24.6646 21.159 24.6668C23.2077 24.6671 25.0703 23.4784 25.9323 21.62C26.0305 21.4138 26.016 21.1715 25.8943 20.9781C25.7732 20.7846 25.5608 20.6673 25.3325 20.6664H21.9988V17.9998H25.3325C25.5608 17.9993 25.7732 17.8817 25.8943 17.6885C26.016 17.4951 26.0305 17.2528 25.9323 17.0465C25.0703 15.1882 23.2077 13.9993 21.159 14C19.5409 14.0015 18.0106 14.7373 16.9989 16H14.2748L22.4704 7.80464C22.5482 7.7266 22.6061 7.63034 22.6375 7.5249L24.6375 0.85795C24.708 0.622823 24.6438 0.368478 24.4702 0.19535C24.2969 0.0218876 24.0424 -0.0424507 23.8074 0.0282378L17.1408 2.0279C17.035 2.05949 16.9391 2.11714 16.8611 2.19535L2.94029 16.1158C1.35958 17.0209 0.290893 18.6106 0.0502511 20.4164C-0.190558 22.2216 0.424248 24.0361 1.71268 25.323L14.6758 38.2856C15.7352 39.3489 17.1649 39.9606 18.6656 39.9923V40H21.9988C22.2219 40 22.4299 39.8885 22.5534 39.7034C22.7346 39.454 23.0242 39.3068 23.3322 39.3068C23.6403 39.3068 23.9301 39.454 24.1111 39.7034C24.2346 39.8885 24.4425 40 24.6656 40H26.6656C27.0339 40 27.3322 39.7015 27.3322 39.3332V37.9998H33.9167L36.5036 38.6462C36.6097 38.6731 36.7212 38.6731 36.8277 38.6462L39.4944 37.9798C39.7909 37.9054 39.9989 37.639 39.9989 37.3332V34.6664C39.9989 34.3608 39.7909 34.0942 39.4944 34.0199L36.8277 33.3531C36.7212 33.3257 36.6097 33.3257 36.5036 33.3531L33.9167 34H26.9418L39.8036 21.1382C40.0636 20.8775 40.0636 20.4557 39.8036 20.1954ZM27.3322 35.333H33.9989C34.0534 35.333 34.1081 35.3264 34.1609 35.313L36.6657 34.6872L38.6656 35.1872V36.8123L36.6657 37.3123L34.1609 36.6863C34.1081 36.6735 34.0534 36.6664 33.9989 36.6664H27.3322V35.333ZM17.3322 17.3332C17.5501 17.3332 17.754 17.2266 17.879 17.048C18.627 15.9751 19.8511 15.3354 21.159 15.3334C22.2872 15.3312 23.3614 15.8173 24.1046 16.6668H21.9988C21.2625 16.6668 20.6656 17.2635 20.6656 17.9998V20.6664C20.6656 21.4029 21.2625 22 21.9988 22H24.1046C23.3614 22.8491 22.2872 23.3356 21.159 23.3332C19.8511 23.3314 18.627 22.6912 17.879 21.6185C17.754 21.4398 17.5501 21.3334 17.3322 21.3334H14.2748L12.9418 20H17.3322V18.6668H11.6082L10.275 17.3332H17.3322ZM12.3897 16H9.60857L19.6657 5.94284L21.0564 7.33339L12.3897 16ZM23.0041 1.66042L22.6044 2.99398L21.6707 2.06049L23.0041 1.66042ZM20.2195 2.49682L22.1689 4.44619L21.6809 6.07269L18.593 2.98479L20.2195 2.49682ZM17.3322 3.60929L18.7229 5L7.98491 15.738C7.3056 15.4706 6.58167 15.3334 5.85139 15.3334C5.76549 15.3334 5.6816 15.3429 5.59621 15.3459L17.3322 3.60929ZM18.8136 38.6668C17.6146 38.6698 16.4639 38.1935 15.6183 37.3434L2.65553 24.3807C0.890826 22.6158 0.890826 19.7545 2.65553 17.99C4.42057 16.2251 7.28153 16.2251 9.04607 17.99L22.009 30.9524C23.3011 32.245 23.688 34.1885 22.9886 35.877C22.2892 37.5655 20.6412 38.6668 18.8136 38.6668ZM25.9989 37.3332V38.6668H24.9849C24.5561 38.2107 23.9578 37.9525 23.3322 37.9534C23.3018 37.9534 23.2723 37.9612 23.2423 37.9626C23.4836 37.682 23.6983 37.3793 23.8831 37.0587L25.9989 34.9428V37.3332ZM24.653 34.4001C24.653 34.3147 24.6656 34.2308 24.6656 34.1444C24.6699 32.5916 24.0526 31.1014 22.9518 30.0065L22.275 29.3332L24.6656 26.9427L26.1943 28.4713L27.137 27.5287L25.6082 26L26.6656 24.9427L27.5275 25.8045L28.4704 24.8621L27.6082 24L28.6657 22.9428L30.1941 24.4714L31.137 23.5286L29.6081 22L30.6656 20.9428L31.5275 21.8046L32.4702 20.8618L31.6082 20L32.6656 18.9427L34.1943 20.4713L35.137 19.5286L33.6082 17.9998L34.6657 16.9427L38.3897 20.6664L24.653 34.4001Z" fill="#FF7800"/>
</svg>
